<mxfile host="app.diagrams.net" modified="2023-10-03T11:54:54.646Z" agent="Mozilla/5.0 (X11; Linux x86_64) AppleWebKit/537.36 (KHTML, like Gecko) Chrome/114.0.0.0 Safari/537.36" etag="cGA-a69nQQrDmSHkzATF" version="22.0.1" type="device">
  <diagram name="PÃ¡gina-1" id="5CcIAi9sO2Fo8ZVoaZfr">
    <mxGraphModel dx="2049" dy="1844" grid="1" gridSize="10" guides="1" tooltips="1" connect="1" arrows="1" fold="1" page="1" pageScale="1" pageWidth="1169" pageHeight="827" math="0" shadow="0">
      <root>
        <mxCell id="0" />
        <mxCell id="1" parent="0" />
        <mxCell id="COTnf0Z8foD5MH-tzt1y-17" style="edgeStyle=orthogonalEdgeStyle;rounded=0;orthogonalLoop=1;jettySize=auto;html=1;exitX=0.5;exitY=1;exitDx=0;exitDy=0;entryX=0.5;entryY=0;entryDx=0;entryDy=0;" edge="1" parent="1" source="COTnf0Z8foD5MH-tzt1y-1" target="COTnf0Z8foD5MH-tzt1y-2">
          <mxGeometry relative="1" as="geometry" />
        </mxCell>
        <mxCell id="COTnf0Z8foD5MH-tzt1y-29" style="edgeStyle=orthogonalEdgeStyle;rounded=0;orthogonalLoop=1;jettySize=auto;html=1;exitX=0.5;exitY=1;exitDx=0;exitDy=0;" edge="1" parent="1" source="COTnf0Z8foD5MH-tzt1y-1">
          <mxGeometry relative="1" as="geometry">
            <mxPoint x="390" y="10" as="targetPoint" />
          </mxGeometry>
        </mxCell>
        <mxCell id="COTnf0Z8foD5MH-tzt1y-1" value="INICIO" style="rounded=1;whiteSpace=wrap;html=1;" vertex="1" parent="1">
          <mxGeometry x="330" y="-100" width="120" height="60" as="geometry" />
        </mxCell>
        <mxCell id="COTnf0Z8foD5MH-tzt1y-18" style="edgeStyle=orthogonalEdgeStyle;rounded=0;orthogonalLoop=1;jettySize=auto;html=1;exitX=0.5;exitY=1;exitDx=0;exitDy=0;entryX=0.5;entryY=0;entryDx=0;entryDy=0;" edge="1" parent="1" source="COTnf0Z8foD5MH-tzt1y-2" target="COTnf0Z8foD5MH-tzt1y-3">
          <mxGeometry relative="1" as="geometry" />
        </mxCell>
        <mxCell id="COTnf0Z8foD5MH-tzt1y-2" value="ESCRIBIR&quot;Elige &lt;br&gt;1 Multiplica&lt;br&gt;2Divide&lt;br&gt;3Suma&lt;br&gt;4Todo&quot;" style="shape=parallelogram;perimeter=parallelogramPerimeter;whiteSpace=wrap;html=1;fixedSize=1;" vertex="1" parent="1">
          <mxGeometry x="330" y="140" width="120" height="60" as="geometry" />
        </mxCell>
        <mxCell id="COTnf0Z8foD5MH-tzt1y-13" style="edgeStyle=orthogonalEdgeStyle;rounded=0;orthogonalLoop=1;jettySize=auto;html=1;exitX=0.5;exitY=1;exitDx=0;exitDy=0;entryX=0.5;entryY=0;entryDx=0;entryDy=0;" edge="1" parent="1" source="COTnf0Z8foD5MH-tzt1y-3" target="COTnf0Z8foD5MH-tzt1y-5">
          <mxGeometry relative="1" as="geometry" />
        </mxCell>
        <mxCell id="COTnf0Z8foD5MH-tzt1y-14" style="edgeStyle=orthogonalEdgeStyle;rounded=0;orthogonalLoop=1;jettySize=auto;html=1;exitX=0.5;exitY=1;exitDx=0;exitDy=0;entryX=0.5;entryY=0;entryDx=0;entryDy=0;" edge="1" parent="1" source="COTnf0Z8foD5MH-tzt1y-3" target="COTnf0Z8foD5MH-tzt1y-7">
          <mxGeometry relative="1" as="geometry" />
        </mxCell>
        <mxCell id="COTnf0Z8foD5MH-tzt1y-15" style="edgeStyle=orthogonalEdgeStyle;rounded=0;orthogonalLoop=1;jettySize=auto;html=1;exitX=0.5;exitY=1;exitDx=0;exitDy=0;entryX=0.5;entryY=0;entryDx=0;entryDy=0;" edge="1" parent="1" source="COTnf0Z8foD5MH-tzt1y-3" target="COTnf0Z8foD5MH-tzt1y-9">
          <mxGeometry relative="1" as="geometry" />
        </mxCell>
        <mxCell id="COTnf0Z8foD5MH-tzt1y-16" style="edgeStyle=orthogonalEdgeStyle;rounded=0;orthogonalLoop=1;jettySize=auto;html=1;exitX=0.5;exitY=1;exitDx=0;exitDy=0;entryX=0.5;entryY=0;entryDx=0;entryDy=0;" edge="1" parent="1" source="COTnf0Z8foD5MH-tzt1y-3" target="COTnf0Z8foD5MH-tzt1y-12">
          <mxGeometry relative="1" as="geometry" />
        </mxCell>
        <mxCell id="COTnf0Z8foD5MH-tzt1y-3" value="LEER&lt;br&gt;elige" style="shape=parallelogram;perimeter=parallelogramPerimeter;whiteSpace=wrap;html=1;fixedSize=1;" vertex="1" parent="1">
          <mxGeometry x="330" y="250" width="120" height="60" as="geometry" />
        </mxCell>
        <mxCell id="COTnf0Z8foD5MH-tzt1y-54" style="edgeStyle=orthogonalEdgeStyle;rounded=0;orthogonalLoop=1;jettySize=auto;html=1;exitX=0.5;exitY=1;exitDx=0;exitDy=0;entryX=0.5;entryY=0;entryDx=0;entryDy=0;" edge="1" parent="1" source="COTnf0Z8foD5MH-tzt1y-4" target="COTnf0Z8foD5MH-tzt1y-23">
          <mxGeometry relative="1" as="geometry" />
        </mxCell>
        <mxCell id="COTnf0Z8foD5MH-tzt1y-4" value="LEER&lt;br&gt;num1&lt;br&gt;num2" style="shape=parallelogram;perimeter=parallelogramPerimeter;whiteSpace=wrap;html=1;fixedSize=1;" vertex="1" parent="1">
          <mxGeometry x="30" y="600" width="120" height="60" as="geometry" />
        </mxCell>
        <mxCell id="COTnf0Z8foD5MH-tzt1y-19" style="edgeStyle=orthogonalEdgeStyle;rounded=0;orthogonalLoop=1;jettySize=auto;html=1;exitX=0.5;exitY=1;exitDx=0;exitDy=0;entryX=0.5;entryY=0;entryDx=0;entryDy=0;" edge="1" parent="1" source="COTnf0Z8foD5MH-tzt1y-5" target="COTnf0Z8foD5MH-tzt1y-4">
          <mxGeometry relative="1" as="geometry" />
        </mxCell>
        <mxCell id="COTnf0Z8foD5MH-tzt1y-5" value="ESCRIBIR &quot;Introduce 2 numeros" style="shape=parallelogram;perimeter=parallelogramPerimeter;whiteSpace=wrap;html=1;fixedSize=1;" vertex="1" parent="1">
          <mxGeometry x="30" y="430" width="120" height="60" as="geometry" />
        </mxCell>
        <mxCell id="COTnf0Z8foD5MH-tzt1y-39" style="edgeStyle=orthogonalEdgeStyle;rounded=0;orthogonalLoop=1;jettySize=auto;html=1;exitX=0.5;exitY=1;exitDx=0;exitDy=0;entryX=0.5;entryY=0;entryDx=0;entryDy=0;" edge="1" parent="1" source="COTnf0Z8foD5MH-tzt1y-6" target="COTnf0Z8foD5MH-tzt1y-27">
          <mxGeometry relative="1" as="geometry" />
        </mxCell>
        <mxCell id="COTnf0Z8foD5MH-tzt1y-6" value="LEER&lt;br&gt;num1&lt;br&gt;num2" style="shape=parallelogram;perimeter=parallelogramPerimeter;whiteSpace=wrap;html=1;fixedSize=1;" vertex="1" parent="1">
          <mxGeometry x="230" y="600" width="120" height="60" as="geometry" />
        </mxCell>
        <mxCell id="COTnf0Z8foD5MH-tzt1y-40" style="edgeStyle=orthogonalEdgeStyle;rounded=0;orthogonalLoop=1;jettySize=auto;html=1;exitX=0.5;exitY=1;exitDx=0;exitDy=0;" edge="1" parent="1" source="COTnf0Z8foD5MH-tzt1y-7" target="COTnf0Z8foD5MH-tzt1y-6">
          <mxGeometry relative="1" as="geometry" />
        </mxCell>
        <mxCell id="COTnf0Z8foD5MH-tzt1y-7" value="ESCRIBIR &quot;Introduce 2 numeros" style="shape=parallelogram;perimeter=parallelogramPerimeter;whiteSpace=wrap;html=1;fixedSize=1;" vertex="1" parent="1">
          <mxGeometry x="230" y="430" width="120" height="60" as="geometry" />
        </mxCell>
        <mxCell id="COTnf0Z8foD5MH-tzt1y-49" style="edgeStyle=orthogonalEdgeStyle;rounded=0;orthogonalLoop=1;jettySize=auto;html=1;exitX=0.5;exitY=1;exitDx=0;exitDy=0;entryX=0.5;entryY=0;entryDx=0;entryDy=0;" edge="1" parent="1" source="COTnf0Z8foD5MH-tzt1y-8" target="COTnf0Z8foD5MH-tzt1y-48">
          <mxGeometry relative="1" as="geometry" />
        </mxCell>
        <mxCell id="COTnf0Z8foD5MH-tzt1y-8" value="LEER&lt;br&gt;num1&lt;br&gt;num2" style="shape=parallelogram;perimeter=parallelogramPerimeter;whiteSpace=wrap;html=1;fixedSize=1;" vertex="1" parent="1">
          <mxGeometry x="430" y="600" width="120" height="60" as="geometry" />
        </mxCell>
        <mxCell id="COTnf0Z8foD5MH-tzt1y-21" style="edgeStyle=orthogonalEdgeStyle;rounded=0;orthogonalLoop=1;jettySize=auto;html=1;exitX=0.5;exitY=1;exitDx=0;exitDy=0;entryX=0.5;entryY=0;entryDx=0;entryDy=0;" edge="1" parent="1" source="COTnf0Z8foD5MH-tzt1y-9" target="COTnf0Z8foD5MH-tzt1y-8">
          <mxGeometry relative="1" as="geometry" />
        </mxCell>
        <mxCell id="COTnf0Z8foD5MH-tzt1y-9" value="ESCRIBIR &quot;Introduce 2 numeros" style="shape=parallelogram;perimeter=parallelogramPerimeter;whiteSpace=wrap;html=1;fixedSize=1;" vertex="1" parent="1">
          <mxGeometry x="430" y="430" width="120" height="60" as="geometry" />
        </mxCell>
        <mxCell id="COTnf0Z8foD5MH-tzt1y-75" style="edgeStyle=orthogonalEdgeStyle;rounded=0;orthogonalLoop=1;jettySize=auto;html=1;exitX=1;exitY=0.5;exitDx=0;exitDy=0;entryX=0.5;entryY=0;entryDx=0;entryDy=0;" edge="1" parent="1" source="COTnf0Z8foD5MH-tzt1y-11" target="COTnf0Z8foD5MH-tzt1y-67">
          <mxGeometry relative="1" as="geometry" />
        </mxCell>
        <mxCell id="COTnf0Z8foD5MH-tzt1y-11" value="LEER&lt;br&gt;num1&lt;br&gt;num2" style="shape=parallelogram;perimeter=parallelogramPerimeter;whiteSpace=wrap;html=1;fixedSize=1;" vertex="1" parent="1">
          <mxGeometry x="680" y="600" width="120" height="60" as="geometry" />
        </mxCell>
        <mxCell id="COTnf0Z8foD5MH-tzt1y-22" style="edgeStyle=orthogonalEdgeStyle;rounded=0;orthogonalLoop=1;jettySize=auto;html=1;exitX=0.5;exitY=1;exitDx=0;exitDy=0;" edge="1" parent="1" source="COTnf0Z8foD5MH-tzt1y-12" target="COTnf0Z8foD5MH-tzt1y-11">
          <mxGeometry relative="1" as="geometry" />
        </mxCell>
        <mxCell id="COTnf0Z8foD5MH-tzt1y-12" value="ESCRIBIR &quot;Introduce 2 numeros" style="shape=parallelogram;perimeter=parallelogramPerimeter;whiteSpace=wrap;html=1;fixedSize=1;" vertex="1" parent="1">
          <mxGeometry x="680" y="430" width="120" height="60" as="geometry" />
        </mxCell>
        <mxCell id="COTnf0Z8foD5MH-tzt1y-55" style="edgeStyle=orthogonalEdgeStyle;rounded=0;orthogonalLoop=1;jettySize=auto;html=1;exitX=0.5;exitY=1;exitDx=0;exitDy=0;entryX=0.5;entryY=0;entryDx=0;entryDy=0;" edge="1" parent="1" source="COTnf0Z8foD5MH-tzt1y-23" target="COTnf0Z8foD5MH-tzt1y-52">
          <mxGeometry relative="1" as="geometry" />
        </mxCell>
        <mxCell id="COTnf0Z8foD5MH-tzt1y-23" value="multiplicacion=&lt;br&gt;num1*num2" style="shape=process;whiteSpace=wrap;html=1;backgroundOutline=1;" vertex="1" parent="1">
          <mxGeometry x="30" y="720" width="120" height="60" as="geometry" />
        </mxCell>
        <mxCell id="COTnf0Z8foD5MH-tzt1y-35" style="edgeStyle=orthogonalEdgeStyle;rounded=0;orthogonalLoop=1;jettySize=auto;html=1;exitX=0.5;exitY=1;exitDx=0;exitDy=0;entryX=0.5;entryY=0;entryDx=0;entryDy=0;" edge="1" parent="1" source="COTnf0Z8foD5MH-tzt1y-24" target="COTnf0Z8foD5MH-tzt1y-31">
          <mxGeometry relative="1" as="geometry" />
        </mxCell>
        <mxCell id="COTnf0Z8foD5MH-tzt1y-24" value="division=&lt;br&gt;num1/num2&lt;br&gt;error--" style="shape=process;whiteSpace=wrap;html=1;backgroundOutline=1;" vertex="1" parent="1">
          <mxGeometry x="210" y="1030" width="120" height="60" as="geometry" />
        </mxCell>
        <mxCell id="COTnf0Z8foD5MH-tzt1y-37" style="edgeStyle=orthogonalEdgeStyle;rounded=0;orthogonalLoop=1;jettySize=auto;html=1;exitX=0.5;exitY=1;exitDx=0;exitDy=0;entryX=0.5;entryY=0;entryDx=0;entryDy=0;" edge="1" parent="1" source="COTnf0Z8foD5MH-tzt1y-25" target="COTnf0Z8foD5MH-tzt1y-24">
          <mxGeometry relative="1" as="geometry" />
        </mxCell>
        <mxCell id="COTnf0Z8foD5MH-tzt1y-38" style="edgeStyle=orthogonalEdgeStyle;rounded=0;orthogonalLoop=1;jettySize=auto;html=1;exitX=1;exitY=0.5;exitDx=0;exitDy=0;entryX=0.5;entryY=0;entryDx=0;entryDy=0;" edge="1" parent="1" source="COTnf0Z8foD5MH-tzt1y-25" target="COTnf0Z8foD5MH-tzt1y-26">
          <mxGeometry relative="1" as="geometry" />
        </mxCell>
        <mxCell id="COTnf0Z8foD5MH-tzt1y-25" value="num1!=0&lt;br&gt;&amp;amp;&amp;amp;&lt;br&gt;num2!=0" style="rhombus;whiteSpace=wrap;html=1;" vertex="1" parent="1">
          <mxGeometry x="230" y="870" width="80" height="80" as="geometry" />
        </mxCell>
        <mxCell id="COTnf0Z8foD5MH-tzt1y-26" value="ESCRIBIR&lt;br&gt;&quot;Ningun numero puede ser 0&quot;" style="shape=parallelogram;perimeter=parallelogramPerimeter;whiteSpace=wrap;html=1;fixedSize=1;" vertex="1" parent="1">
          <mxGeometry x="380" y="1130" width="120" height="60" as="geometry" />
        </mxCell>
        <mxCell id="COTnf0Z8foD5MH-tzt1y-45" style="edgeStyle=orthogonalEdgeStyle;rounded=0;orthogonalLoop=1;jettySize=auto;html=1;exitX=0.5;exitY=1;exitDx=0;exitDy=0;entryX=0.5;entryY=0;entryDx=0;entryDy=0;" edge="1" parent="1" source="COTnf0Z8foD5MH-tzt1y-27" target="COTnf0Z8foD5MH-tzt1y-25">
          <mxGeometry relative="1" as="geometry" />
        </mxCell>
        <mxCell id="COTnf0Z8foD5MH-tzt1y-47" style="edgeStyle=orthogonalEdgeStyle;rounded=0;orthogonalLoop=1;jettySize=auto;html=1;exitX=1;exitY=0.5;exitDx=0;exitDy=0;entryX=0.25;entryY=0;entryDx=0;entryDy=0;" edge="1" parent="1" source="COTnf0Z8foD5MH-tzt1y-27" target="COTnf0Z8foD5MH-tzt1y-46">
          <mxGeometry relative="1" as="geometry">
            <mxPoint x="550" y="1383" as="targetPoint" />
          </mxGeometry>
        </mxCell>
        <mxCell id="COTnf0Z8foD5MH-tzt1y-27" value="error==1" style="rhombus;whiteSpace=wrap;html=1;" vertex="1" parent="1">
          <mxGeometry x="240" y="740" width="80" height="80" as="geometry" />
        </mxCell>
        <mxCell id="COTnf0Z8foD5MH-tzt1y-30" style="edgeStyle=orthogonalEdgeStyle;rounded=0;orthogonalLoop=1;jettySize=auto;html=1;exitX=0.5;exitY=1;exitDx=0;exitDy=0;entryX=0.5;entryY=0;entryDx=0;entryDy=0;" edge="1" parent="1" source="COTnf0Z8foD5MH-tzt1y-28" target="COTnf0Z8foD5MH-tzt1y-2">
          <mxGeometry relative="1" as="geometry" />
        </mxCell>
        <mxCell id="COTnf0Z8foD5MH-tzt1y-28" value="error=1" style="shape=process;whiteSpace=wrap;html=1;backgroundOutline=1;" vertex="1" parent="1">
          <mxGeometry x="330" y="10" width="120" height="60" as="geometry" />
        </mxCell>
        <mxCell id="COTnf0Z8foD5MH-tzt1y-33" style="edgeStyle=orthogonalEdgeStyle;rounded=0;orthogonalLoop=1;jettySize=auto;html=1;exitX=0.5;exitY=1;exitDx=0;exitDy=0;" edge="1" parent="1" source="COTnf0Z8foD5MH-tzt1y-31" target="COTnf0Z8foD5MH-tzt1y-32">
          <mxGeometry relative="1" as="geometry" />
        </mxCell>
        <mxCell id="COTnf0Z8foD5MH-tzt1y-31" value="ESCRIBIR &quot;resultado de la division" style="shape=parallelogram;perimeter=parallelogramPerimeter;whiteSpace=wrap;html=1;fixedSize=1;" vertex="1" parent="1">
          <mxGeometry x="190" y="1130" width="120" height="60" as="geometry" />
        </mxCell>
        <mxCell id="COTnf0Z8foD5MH-tzt1y-41" style="edgeStyle=orthogonalEdgeStyle;rounded=0;orthogonalLoop=1;jettySize=auto;html=1;exitX=0;exitY=0.5;exitDx=0;exitDy=0;" edge="1" parent="1" source="COTnf0Z8foD5MH-tzt1y-32">
          <mxGeometry relative="1" as="geometry">
            <mxPoint x="180" y="710" as="targetPoint" />
          </mxGeometry>
        </mxCell>
        <mxCell id="COTnf0Z8foD5MH-tzt1y-32" value="" style="ellipse;whiteSpace=wrap;html=1;aspect=fixed;" vertex="1" parent="1">
          <mxGeometry x="270" y="1230" width="80" height="80" as="geometry" />
        </mxCell>
        <mxCell id="COTnf0Z8foD5MH-tzt1y-34" style="edgeStyle=orthogonalEdgeStyle;rounded=0;orthogonalLoop=1;jettySize=auto;html=1;exitX=0.5;exitY=1;exitDx=0;exitDy=0;entryX=1.013;entryY=0.35;entryDx=0;entryDy=0;entryPerimeter=0;" edge="1" parent="1" source="COTnf0Z8foD5MH-tzt1y-26" target="COTnf0Z8foD5MH-tzt1y-32">
          <mxGeometry relative="1" as="geometry" />
        </mxCell>
        <mxCell id="COTnf0Z8foD5MH-tzt1y-43" value="" style="endArrow=classic;html=1;rounded=0;" edge="1" parent="1">
          <mxGeometry relative="1" as="geometry">
            <mxPoint x="180" y="710" as="sourcePoint" />
            <mxPoint x="280" y="710" as="targetPoint" />
          </mxGeometry>
        </mxCell>
        <mxCell id="COTnf0Z8foD5MH-tzt1y-44" value="" style="shape=message;html=1;outlineConnect=0;" vertex="1" parent="COTnf0Z8foD5MH-tzt1y-43">
          <mxGeometry width="20" height="14" relative="1" as="geometry">
            <mxPoint x="-10" y="-7" as="offset" />
          </mxGeometry>
        </mxCell>
        <mxCell id="COTnf0Z8foD5MH-tzt1y-46" value="FIN" style="rounded=1;whiteSpace=wrap;html=1;" vertex="1" parent="1">
          <mxGeometry x="465" y="1570" width="120" height="60" as="geometry" />
        </mxCell>
        <mxCell id="COTnf0Z8foD5MH-tzt1y-57" style="edgeStyle=orthogonalEdgeStyle;rounded=0;orthogonalLoop=1;jettySize=auto;html=1;exitX=0.5;exitY=1;exitDx=0;exitDy=0;entryX=0.5;entryY=0;entryDx=0;entryDy=0;" edge="1" parent="1" source="COTnf0Z8foD5MH-tzt1y-48" target="COTnf0Z8foD5MH-tzt1y-53">
          <mxGeometry relative="1" as="geometry" />
        </mxCell>
        <mxCell id="COTnf0Z8foD5MH-tzt1y-48" value="SUMA=&lt;br&gt;num1+num2" style="shape=process;whiteSpace=wrap;html=1;backgroundOutline=1;" vertex="1" parent="1">
          <mxGeometry x="540" y="750" width="120" height="60" as="geometry" />
        </mxCell>
        <mxCell id="COTnf0Z8foD5MH-tzt1y-56" style="edgeStyle=orthogonalEdgeStyle;rounded=0;orthogonalLoop=1;jettySize=auto;html=1;exitX=1;exitY=0.5;exitDx=0;exitDy=0;entryX=0;entryY=0.5;entryDx=0;entryDy=0;" edge="1" parent="1" source="COTnf0Z8foD5MH-tzt1y-52" target="COTnf0Z8foD5MH-tzt1y-46">
          <mxGeometry relative="1" as="geometry" />
        </mxCell>
        <mxCell id="COTnf0Z8foD5MH-tzt1y-52" value="ESCRIBIR&quot; Multiplicacion&quot;" style="shape=parallelogram;perimeter=parallelogramPerimeter;whiteSpace=wrap;html=1;fixedSize=1;" vertex="1" parent="1">
          <mxGeometry x="30" y="1400" width="120" height="60" as="geometry" />
        </mxCell>
        <mxCell id="COTnf0Z8foD5MH-tzt1y-58" style="edgeStyle=orthogonalEdgeStyle;rounded=0;orthogonalLoop=1;jettySize=auto;html=1;exitX=0.5;exitY=1;exitDx=0;exitDy=0;entryX=0.75;entryY=0;entryDx=0;entryDy=0;" edge="1" parent="1" source="COTnf0Z8foD5MH-tzt1y-53" target="COTnf0Z8foD5MH-tzt1y-46">
          <mxGeometry relative="1" as="geometry" />
        </mxCell>
        <mxCell id="COTnf0Z8foD5MH-tzt1y-53" value="ESCRIBIR&quot; Suma&quot;" style="shape=parallelogram;perimeter=parallelogramPerimeter;whiteSpace=wrap;html=1;fixedSize=1;" vertex="1" parent="1">
          <mxGeometry x="540" y="870" width="120" height="60" as="geometry" />
        </mxCell>
        <mxCell id="COTnf0Z8foD5MH-tzt1y-60" style="edgeStyle=orthogonalEdgeStyle;rounded=0;orthogonalLoop=1;jettySize=auto;html=1;exitX=0.5;exitY=1;exitDx=0;exitDy=0;entryX=0.5;entryY=0;entryDx=0;entryDy=0;" edge="1" parent="1" source="COTnf0Z8foD5MH-tzt1y-61" target="COTnf0Z8foD5MH-tzt1y-69">
          <mxGeometry relative="1" as="geometry" />
        </mxCell>
        <mxCell id="COTnf0Z8foD5MH-tzt1y-77" value="" style="edgeStyle=orthogonalEdgeStyle;rounded=0;orthogonalLoop=1;jettySize=auto;html=1;" edge="1" parent="1" source="COTnf0Z8foD5MH-tzt1y-61">
          <mxGeometry relative="1" as="geometry">
            <mxPoint x="810" y="1160" as="targetPoint" />
          </mxGeometry>
        </mxCell>
        <mxCell id="COTnf0Z8foD5MH-tzt1y-61" value="division=&lt;br&gt;num1/num2&lt;br&gt;&lt;br&gt;multiplicacion=&lt;br&gt;num2*num1&lt;br&gt;&lt;br&gt;suma=num1+num2&lt;br&gt;&lt;br&gt;error--" style="shape=process;whiteSpace=wrap;html=1;backgroundOutline=1;" vertex="1" parent="1">
          <mxGeometry x="750" y="1020" width="170" height="180" as="geometry" />
        </mxCell>
        <mxCell id="COTnf0Z8foD5MH-tzt1y-62" style="edgeStyle=orthogonalEdgeStyle;rounded=0;orthogonalLoop=1;jettySize=auto;html=1;exitX=0.5;exitY=1;exitDx=0;exitDy=0;entryX=0.5;entryY=0;entryDx=0;entryDy=0;" edge="1" parent="1" source="COTnf0Z8foD5MH-tzt1y-64" target="COTnf0Z8foD5MH-tzt1y-61">
          <mxGeometry relative="1" as="geometry" />
        </mxCell>
        <mxCell id="COTnf0Z8foD5MH-tzt1y-63" style="edgeStyle=orthogonalEdgeStyle;rounded=0;orthogonalLoop=1;jettySize=auto;html=1;exitX=1;exitY=0.5;exitDx=0;exitDy=0;entryX=0.5;entryY=0;entryDx=0;entryDy=0;" edge="1" parent="1" source="COTnf0Z8foD5MH-tzt1y-64" target="COTnf0Z8foD5MH-tzt1y-65">
          <mxGeometry relative="1" as="geometry" />
        </mxCell>
        <mxCell id="COTnf0Z8foD5MH-tzt1y-64" value="num1!=0&lt;br&gt;&amp;amp;&amp;amp;&lt;br&gt;num2!=0" style="rhombus;whiteSpace=wrap;html=1;" vertex="1" parent="1">
          <mxGeometry x="770" y="910" width="80" height="80" as="geometry" />
        </mxCell>
        <mxCell id="COTnf0Z8foD5MH-tzt1y-65" value="ESCRIBIR&lt;br&gt;&quot;Ningun numero puede ser 0&quot;" style="shape=parallelogram;perimeter=parallelogramPerimeter;whiteSpace=wrap;html=1;fixedSize=1;" vertex="1" parent="1">
          <mxGeometry x="920" y="1170" width="120" height="60" as="geometry" />
        </mxCell>
        <mxCell id="COTnf0Z8foD5MH-tzt1y-66" style="edgeStyle=orthogonalEdgeStyle;rounded=0;orthogonalLoop=1;jettySize=auto;html=1;exitX=0.5;exitY=1;exitDx=0;exitDy=0;entryX=0.5;entryY=0;entryDx=0;entryDy=0;" edge="1" parent="1" source="COTnf0Z8foD5MH-tzt1y-67" target="COTnf0Z8foD5MH-tzt1y-64">
          <mxGeometry relative="1" as="geometry" />
        </mxCell>
        <mxCell id="COTnf0Z8foD5MH-tzt1y-79" style="edgeStyle=orthogonalEdgeStyle;rounded=0;orthogonalLoop=1;jettySize=auto;html=1;exitX=1;exitY=0.5;exitDx=0;exitDy=0;entryX=1;entryY=0.5;entryDx=0;entryDy=0;" edge="1" parent="1" source="COTnf0Z8foD5MH-tzt1y-67" target="COTnf0Z8foD5MH-tzt1y-46">
          <mxGeometry relative="1" as="geometry" />
        </mxCell>
        <mxCell id="COTnf0Z8foD5MH-tzt1y-67" value="error==1" style="rhombus;whiteSpace=wrap;html=1;" vertex="1" parent="1">
          <mxGeometry x="1020" y="780" width="80" height="80" as="geometry" />
        </mxCell>
        <mxCell id="COTnf0Z8foD5MH-tzt1y-68" style="edgeStyle=orthogonalEdgeStyle;rounded=0;orthogonalLoop=1;jettySize=auto;html=1;exitX=0.5;exitY=1;exitDx=0;exitDy=0;" edge="1" parent="1" source="COTnf0Z8foD5MH-tzt1y-69" target="COTnf0Z8foD5MH-tzt1y-71">
          <mxGeometry relative="1" as="geometry" />
        </mxCell>
        <mxCell id="COTnf0Z8foD5MH-tzt1y-78" style="edgeStyle=orthogonalEdgeStyle;rounded=0;orthogonalLoop=1;jettySize=auto;html=1;exitX=0.5;exitY=1;exitDx=0;exitDy=0;" edge="1" parent="1" source="COTnf0Z8foD5MH-tzt1y-69">
          <mxGeometry relative="1" as="geometry">
            <mxPoint x="810" y="1360" as="targetPoint" />
          </mxGeometry>
        </mxCell>
        <mxCell id="COTnf0Z8foD5MH-tzt1y-69" value="ESCRIBIR &quot;resultado de la division + suma+ multiplicacion" style="shape=parallelogram;perimeter=parallelogramPerimeter;whiteSpace=wrap;html=1;fixedSize=1;" vertex="1" parent="1">
          <mxGeometry x="750" y="1290" width="120" height="110" as="geometry" />
        </mxCell>
        <mxCell id="COTnf0Z8foD5MH-tzt1y-70" style="edgeStyle=orthogonalEdgeStyle;rounded=0;orthogonalLoop=1;jettySize=auto;html=1;exitX=0;exitY=0.5;exitDx=0;exitDy=0;" edge="1" parent="1" source="COTnf0Z8foD5MH-tzt1y-71">
          <mxGeometry relative="1" as="geometry">
            <mxPoint x="720" y="750" as="targetPoint" />
          </mxGeometry>
        </mxCell>
        <mxCell id="COTnf0Z8foD5MH-tzt1y-71" value="" style="ellipse;whiteSpace=wrap;html=1;aspect=fixed;" vertex="1" parent="1">
          <mxGeometry x="800" y="1470" width="80" height="80" as="geometry" />
        </mxCell>
        <mxCell id="COTnf0Z8foD5MH-tzt1y-72" style="edgeStyle=orthogonalEdgeStyle;rounded=0;orthogonalLoop=1;jettySize=auto;html=1;exitX=0.5;exitY=1;exitDx=0;exitDy=0;entryX=1.013;entryY=0.35;entryDx=0;entryDy=0;entryPerimeter=0;" edge="1" parent="1" source="COTnf0Z8foD5MH-tzt1y-65" target="COTnf0Z8foD5MH-tzt1y-71">
          <mxGeometry relative="1" as="geometry" />
        </mxCell>
        <mxCell id="COTnf0Z8foD5MH-tzt1y-73" value="" style="endArrow=classic;html=1;rounded=0;" edge="1" parent="1">
          <mxGeometry relative="1" as="geometry">
            <mxPoint x="720" y="750" as="sourcePoint" />
            <mxPoint x="1060" y="750" as="targetPoint" />
          </mxGeometry>
        </mxCell>
        <mxCell id="COTnf0Z8foD5MH-tzt1y-74" value="" style="shape=message;html=1;outlineConnect=0;" vertex="1" parent="COTnf0Z8foD5MH-tzt1y-73">
          <mxGeometry width="20" height="14" relative="1" as="geometry">
            <mxPoint x="-10" y="-7" as="offset" />
          </mxGeometry>
        </mxCell>
        <mxCell id="COTnf0Z8foD5MH-tzt1y-80" value="SI" style="text;html=1;align=center;verticalAlign=middle;resizable=0;points=[];autosize=1;strokeColor=none;fillColor=none;" vertex="1" parent="1">
          <mxGeometry x="835" y="988" width="30" height="30" as="geometry" />
        </mxCell>
        <mxCell id="COTnf0Z8foD5MH-tzt1y-81" value="NO" style="text;html=1;align=center;verticalAlign=middle;resizable=0;points=[];autosize=1;strokeColor=none;fillColor=none;" vertex="1" parent="1">
          <mxGeometry x="860" y="918" width="40" height="30" as="geometry" />
        </mxCell>
        <mxCell id="COTnf0Z8foD5MH-tzt1y-82" value="NO" style="text;html=1;align=center;verticalAlign=middle;resizable=0;points=[];autosize=1;strokeColor=none;fillColor=none;" vertex="1" parent="1">
          <mxGeometry x="320" y="878" width="40" height="30" as="geometry" />
        </mxCell>
        <mxCell id="COTnf0Z8foD5MH-tzt1y-83" value="SI" style="text;html=1;align=center;verticalAlign=middle;resizable=0;points=[];autosize=1;strokeColor=none;fillColor=none;" vertex="1" parent="1">
          <mxGeometry x="265" y="968" width="30" height="30" as="geometry" />
        </mxCell>
        <mxCell id="COTnf0Z8foD5MH-tzt1y-84" value="FALSO" style="text;html=1;align=center;verticalAlign=middle;resizable=0;points=[];autosize=1;strokeColor=none;fillColor=none;" vertex="1" parent="1">
          <mxGeometry x="340" y="748" width="60" height="30" as="geometry" />
        </mxCell>
        <mxCell id="COTnf0Z8foD5MH-tzt1y-85" value="FALSO" style="text;html=1;align=center;verticalAlign=middle;resizable=0;points=[];autosize=1;strokeColor=none;fillColor=none;" vertex="1" parent="1">
          <mxGeometry x="1080" y="1028" width="60" height="30" as="geometry" />
        </mxCell>
      </root>
    </mxGraphModel>
  </diagram>
</mxfile>
